<?xml version="1.0" encoding="UTF-8" standalone="no"?>
<!-- Created with Inkscape (http://www.inkscape.org/) -->

<svg
   version="1.1"
   id="svg9"
   width="39.383575"
   height="42.099583"
   viewBox="0 0 39.383575 42.099583"
   sodipodi:docname="logo.svg"
   inkscape:version="1.2 (dc2aedaf03, 2022-05-15)"
   xmlns:inkscape="http://www.inkscape.org/namespaces/inkscape"
   xmlns:sodipodi="http://sodipodi.sourceforge.net/DTD/sodipodi-0.dtd"
   xmlns="http://www.w3.org/2000/svg"
   xmlns:svg="http://www.w3.org/2000/svg">
  <defs
     id="defs13" />
  <sodipodi:namedview
     id="namedview11"
     pagecolor="#ffffff"
     bordercolor="#black"
     borderopacity="0.25"
     inkscape:showpageshadow="2"
     inkscape:pageopacity="0.0"
     inkscape:pagecheckerboard="0"
     inkscape:deskcolor="#d1d1d1"
     showgrid="false"
     inkscape:zoom="8.8478261"
     inkscape:cx="7.9115479"
     inkscape:cy="24.977887"
     inkscape:window-width="1920"
     inkscape:window-height="1017"
     inkscape:window-x="-8"
     inkscape:window-y="-8"
     inkscape:window-maximized="1"
     inkscape:current-layer="g15" />
  <g
     inkscape:groupmode="layer"
     inkscape:label="Image"
     id="g15"
     transform="translate(-46.122037,-60.186908)">
    <g
       id="g1213"
       transform="translate(-12.627155,-2.0778863)">
      <path
         style="fill:none;stroke:black;stroke-width:1.1;stroke-dasharray:none;stroke-opacity:1"
         d="m 91.826589,103.81439 4.715203,-0.15983 1.038943,-1.2787 -0.399593,-38.440898 -1.438537,-1.118862 -34.684717,0.239756 -1.678292,1.598374 -0.07992,37.64171 1.438537,1.43854 27.332196,0.0799"
         id="path334" />
      <path
         style="fill:none;stroke:black;stroke-width:1.1;stroke-dasharray:none;stroke-opacity:1"
         d="m 68.889922,71.44732 c -0.07992,-3.516423 0.559431,-3.756179 0.559431,-3.756179 0,0 2.108398,-1.12709 3.116829,-0.559431 1.417939,0.798176 1.278699,2.47748 1.198781,3.036911 -0.07992,0.559431 -0.07992,5.434472 -0.07992,5.434472 l 9.350488,0.07992 c 0,0 -0.319675,-5.674228 0,-7.272602 0.319675,-1.598374 2.717236,-1.438536 2.717236,-1.438536 0,0 0.959024,0 1.518455,1.19878 0.559431,1.198781 0.159837,19.819838 0.159837,19.819838 0,0 -1.118861,1.438538 -1.918048,1.2787 -1.275718,-0.255144 -2.557399,-1.358618 -2.557399,-2.077886 0,-0.719269 -0.159837,-7.512359 -0.159837,-7.512359 l -9.350488,0.239757 -0.07992,7.99187 c 0,0 -0.319675,1.358618 -2.237724,1.278699 -1.918049,-0.07992 -1.918049,-0.799187 -2.077886,-1.997967 C 68.88992,85.992526 68.88992,74.484233 68.88992,74.484233"
         id="path1016"
         sodipodi:nodetypes="ccssccscscsscccssc" />
      <path
         style="fill:none;stroke:black;stroke-width:1.1;stroke-dasharray:none;stroke-opacity:1"
         d="m 59.77919,92.545858 37.322034,0.07992"
         id="path1114" />
      <path
         sodipodi:type="star"
         style="fill:none;stroke:black;stroke-width:1.1;stroke-dasharray:none;stroke-opacity:1"
         id="path1168"
         inkscape:flatsided="false"
         sodipodi:sides="5"
         sodipodi:cx="66.33252"
         sodipodi:cy="95.34301"
         sodipodi:r1="3.4141285"
         sodipodi:r2="1.7070642"
         sodipodi:arg1="-0.35877067"
         sodipodi:arg2="0.26954786"
         inkscape:rounded="0"
         inkscape:randomized="0"
         d="m 69.529268,94.144229 -1.551324,1.653365 0.482533,2.215261 -2.051828,-0.964479 -1.957728,1.143469 0.283225,-2.249445 -1.692476,-1.508558 2.226871,-0.425754 0.91172,-2.07581 1.093057,1.986314 z"
         inkscape:transform-center-x="0.04705048"
         inkscape:transform-center-y="-0.28094823"
         transform="translate(2.7971546,2.7971546)" />
      <path
         sodipodi:type="star"
         style="fill:none;stroke:black;stroke-width:1.1;stroke-dasharray:none;stroke-opacity:1"
         id="path1168-2"
         inkscape:flatsided="false"
         sodipodi:sides="5"
         sodipodi:cx="66.33252"
         sodipodi:cy="95.34301"
         sodipodi:r1="3.4141285"
         sodipodi:r2="1.7070642"
         sodipodi:arg1="-0.35877067"
         sodipodi:arg2="0.26954786"
         inkscape:rounded="0"
         inkscape:randomized="0"
         d="m 69.529268,94.144229 -1.551324,1.653365 0.482533,2.215261 -2.051828,-0.964479 -1.957728,1.143469 0.283225,-2.249445 -1.692476,-1.508558 2.226871,-0.425754 0.91172,-2.07581 1.093057,1.986314 z"
         inkscape:transform-center-x="0.04705048"
         inkscape:transform-center-y="-0.28094823"
         transform="translate(12.211824,2.6209402)" />
      <path
         sodipodi:type="star"
         style="fill:none;stroke:black;stroke-width:1.1;stroke-dasharray:none;stroke-opacity:1"
         id="path1168-4"
         inkscape:flatsided="false"
         sodipodi:sides="5"
         sodipodi:cx="66.33252"
         sodipodi:cy="95.34301"
         sodipodi:r1="3.4141285"
         sodipodi:r2="1.7070642"
         sodipodi:arg1="-0.35877067"
         sodipodi:arg2="0.26954786"
         inkscape:rounded="0"
         inkscape:randomized="0"
         d="m 69.529268,94.144229 -1.551324,1.653365 0.482533,2.215261 -2.051828,-0.964479 -1.957728,1.143469 0.283225,-2.249445 -1.692476,-1.508558 2.226871,-0.425754 0.91172,-2.07581 1.093057,1.986314 z"
         inkscape:transform-center-x="0.04705048"
         inkscape:transform-center-y="-0.28094823"
         transform="translate(21.322555,2.6209402)" />
    </g>
  </g>
</svg>
